<?xml version="1.0" encoding="utf-8"?>
<!-- Generator: Adobe Illustrator 16.0.0, SVG Export Plug-In . SVG Version: 6.00 Build 0)  -->
<!DOCTYPE svg PUBLIC "-//W3C//DTD SVG 1.1//EN" "http://www.w3.org/Graphics/SVG/1.1/DTD/svg11.dtd">
<svg version="1.1" id="Layer_1" xmlns="http://www.w3.org/2000/svg" xmlns:xlink="http://www.w3.org/1999/xlink" x="0px" y="0px"
	 width="353.8px" height="391.98px" viewBox="380.62 4.01 353.8 391.98" enable-background="new 380.62 4.01 353.8 391.98"
	 xml:space="preserve">
<g>
	<path fill="#6699CC" d="M710.06,83.84L581.82,9.8c-13.36-7.72-35.24-7.72-48.601,0L404.94,83.84
		c-13.36,7.72-24.32,26.64-24.32,42.08v148.12c0,15.44,10.92,34.36,24.32,42.08l128.28,74.08c13.36,7.72,35.24,7.72,48.601,0
		L710.1,316.12c13.36-7.72,24.32-26.64,24.32-42.08V125.92C734.38,110.52,723.46,91.56,710.06,83.84z"/>
</g>
<path fill="none" stroke="#CCCCCC" stroke-width="17.0079" stroke-linecap="round" stroke-miterlimit="10" d="M713.586,114.173"/>
<path fill="none" stroke="#CCCCCC" stroke-width="17.0079" stroke-linecap="round" stroke-miterlimit="10" d="M713.587,274.173"/>
<path fill="none" stroke="#CCCCCC" stroke-width="17.0079" stroke-linecap="round" stroke-miterlimit="10" d="M569.369,23.87"/>
<path fill="none" stroke="#CCCCCC" stroke-width="17.0079" stroke-linecap="round" stroke-miterlimit="10" d="M704.457,105.043"/>
<path fill="none" stroke="#CCCCCC" stroke-width="14.1732" stroke-linecap="round" stroke-linejoin="round" stroke-miterlimit="10" d="
	M315-31.5"/>
<path fill="none" stroke="#99CCFF" stroke-width="11.3386" stroke-linecap="round" stroke-linejoin="round" stroke-miterlimit="10" d="
	M573.369,16.5c0,0,126.653,72.337,135.088,78c14.216,9.543,16.256,15.621,16.256,29.874S724,281.5,724,281.5"/>
<path fill="none" stroke="#336699" stroke-width="8.5039" stroke-linecap="round" stroke-linejoin="round" stroke-miterlimit="10" d="
	M547.25,389.75c0,0-133.459-77.57-141.894-83.232c-14.216-9.543-16.256-15.62-16.256-29.873s0.713-157.126,0.713-157.126"/>
</svg>
