<?xml version="1.0" encoding="utf-8"?>
<!-- Generator: Adobe Illustrator 16.0.0, SVG Export Plug-In . SVG Version: 6.00 Build 0)  -->
<!DOCTYPE svg PUBLIC "-//W3C//DTD SVG 1.1//EN" "http://www.w3.org/Graphics/SVG/1.1/DTD/svg11.dtd">
<svg version="1.1" id="Layer_1" xmlns="http://www.w3.org/2000/svg" xmlns:xlink="http://www.w3.org/1999/xlink" x="0px" y="0px"
	 width="12px" height="12px" viewBox="0 0 12 12" enable-background="new 0 0 12 12" xml:space="preserve">
<g id="XMLID_1_">
	<g>
	</g>
</g>
<g>
	<path fill="#FFFFFF" d="M10.51,2.48H1.49c0-0.39,0.31-0.71,0.71-0.71h7.6C10.2,1.77,10.51,2.09,10.51,2.48z"/>
	<path fill="#CCCCCC" d="M1.49,2.48h9.02c0,0.39-0.31,0.71-0.71,0.71H2.2C1.8,3.19,1.49,2.87,1.49,2.48z"/>
</g>
<g>
	<path fill="#FFFFFF" d="M10.51,5.563H1.49c0-0.39,0.31-0.71,0.71-0.71h7.6C10.2,4.853,10.51,5.172,10.51,5.563z"/>
	<path fill="#CCCCCC" d="M1.49,5.563h9.02c0,0.39-0.31,0.71-0.71,0.71H2.2C1.8,6.272,1.49,5.953,1.49,5.563z"/>
</g>
<g>
	<path fill="#FFFFFF" d="M10.51,8.646H1.49c0-0.39,0.31-0.71,0.71-0.71h7.6C10.2,7.936,10.51,8.256,10.51,8.646z"/>
	<path fill="#CCCCCC" d="M1.49,8.646h9.02c0,0.39-0.31,0.71-0.71,0.71H2.2C1.8,9.355,1.49,9.035,1.49,8.646z"/>
</g>
</svg>
