<?xml version="1.0" encoding="utf-8"?>
<!-- Generator: Adobe Illustrator 16.0.0, SVG Export Plug-In . SVG Version: 6.00 Build 0)  -->
<!DOCTYPE svg PUBLIC "-//W3C//DTD SVG 1.1//EN" "http://www.w3.org/Graphics/SVG/1.1/DTD/svg11.dtd">
<svg version="1.1" xmlns="http://www.w3.org/2000/svg" xmlns:xlink="http://www.w3.org/1999/xlink" x="0px" y="0px" width="10px"
	 height="10px" viewBox="0 0 10 10" enable-background="new 0 0 10 10" xml:space="preserve">
<g id="Layer_1">
</g>
<g id="Layer_2">
	<path fill="#FFCE33" d="M5.281,1.266c-2.328,0-4.484,0.641-4.484,1.297s0.656,1.328,0.656,1.328l2.641,3.094v1.891
		c0,0,0.234,0.422,0.984,0.422s1-0.297,1-0.469s0-1.875,0-1.875l2.688-3.063c0,0,0.625-0.813,0.625-1.313S7.609,1.266,5.281,1.266z
		 M5.141,3.625c-2.097,0-3.797-0.431-3.797-0.961s1.7-0.961,3.797-0.961s3.797,0.43,3.797,0.961
		C8.938,3.194,7.237,3.625,5.141,3.625z"/>
</g>
</svg>
