<?xml version="1.0" encoding="utf-8"?>
<!-- Generator: Adobe Illustrator 16.0.0, SVG Export Plug-In . SVG Version: 6.00 Build 0)  -->
<!DOCTYPE svg PUBLIC "-//W3C//DTD SVG 1.1//EN" "http://www.w3.org/Graphics/SVG/1.1/DTD/svg11.dtd">
<svg version="1.1" id="Layer_1" xmlns="http://www.w3.org/2000/svg" xmlns:xlink="http://www.w3.org/1999/xlink" x="0px" y="0px"
	 width="13px" height="10px" viewBox="0 0 13 10" enable-background="new 0 0 13 10" xml:space="preserve">
<g id="XMLID_1_">
	<g>
		<path fill="#FFCD33" d="M7.77,6.62c-0.02,1.08,0,2.17-0.02,3.26H5.24c0.01-1.78-0.01-1.399,0-3.17c0-0.33-0.09-0.6-0.32-0.85
			C3.48,4.31,2.05,2.74,0.61,1.19c-0.2-0.21-0.32-0.43-0.2-0.72c0.12-0.3,0.38-0.35,0.66-0.35c1.81,0,3.62,0,5.43,0
			c1.8,0,3.59,0,5.38,0c0.18,0,0.38,0.04,0.53,0.13c0.28,0.17,0.3,0.58,0.06,0.85c-0.89,0.97-1.79,1.94-2.68,2.91
			c-0.6,0.65-1.21,1.28-1.78,1.95C7.86,6.13,7.78,6.39,7.77,6.62z"/>
	</g>
	<g>
	</g>
</g>
</svg>
