<?xml version="1.0" encoding="utf-8"?>
<!-- Generator: Adobe Illustrator 16.0.0, SVG Export Plug-In . SVG Version: 6.00 Build 0)  -->
<!DOCTYPE svg PUBLIC "-//W3C//DTD SVG 1.1//EN" "http://www.w3.org/Graphics/SVG/1.1/DTD/svg11.dtd">
<svg version="1.1" xmlns="http://www.w3.org/2000/svg" xmlns:xlink="http://www.w3.org/1999/xlink" x="0px" y="0px" width="10px"
	 height="10px" viewBox="0 0 10 10" enable-background="new 0 0 10 10" xml:space="preserve">
<g id="Layer_1">
</g>
<g id="Layer_2">
	<g>
		<path fill="#FFFFFF" d="M2.645,5.286L3.29,4.641L1.727,3.077c-0.21-0.111-0.335-0.233-0.363-0.363l-0.43-0.43
			C0.852,2.376,0.797,2.469,0.797,2.563c0,0.656,0.656,1.328,0.656,1.328L2.645,5.286z"/>
		<path fill="#FFFFFF" d="M5.141,1.703c0.365,0,0.711,0.017,1.046,0.042l0.386-0.386C6.167,1.304,5.739,1.266,5.281,1.266
			c-0.571,0-1.13,0.04-1.651,0.107l0.378,0.378C4.368,1.723,4.744,1.703,5.141,1.703z"/>
		<path fill="#FFFFFF" d="M4.094,7.444v1.431c0,0,0.234,0.422,0.984,0.422s1-0.297,1-0.469c0-0.113,0-0.882,0-1.399L5.094,6.444
			L4.094,7.444z"/>
		<path fill="#FFFFFF" d="M8.378,3.159l-1.48,1.481l0.645,0.645l1.224-1.395c0,0,0.625-0.813,0.625-1.313
			c0-0.083-0.065-0.177-0.159-0.272L8.919,2.618c0.003,0.016,0.019,0.03,0.019,0.046C8.938,2.846,8.726,3.014,8.378,3.159z"/>
		<path fill="#FFFFFF" d="M7.167,5.712L6.096,4.641l1.184-1.183c0,0,0,0-0.001,0L9.29,1.446c0.277-0.277,0.277-0.725,0-1.002
			C9.151,0.306,8.97,0.236,8.789,0.236S8.427,0.306,8.288,0.444L7.257,1.475l0,0L6.913,1.819L5.108,3.624L5.094,3.639L5.079,3.624
			L3.286,1.831L2.941,1.486L1.899,0.444C1.761,0.306,1.58,0.236,1.398,0.236c-0.182,0-0.363,0.069-0.501,0.208
			c-0.277,0.277-0.277,0.725,0,1.002L1.412,1.96L1.71,2.259l1.174,1.174l1.208,1.208L3.014,5.719L0.897,7.835
			c-0.277,0.276-0.277,0.726,0,1.002c0.138,0.139,0.32,0.208,0.501,0.208s0.363-0.069,0.501-0.208L3.937,6.8l1.157-1.157L6.23,6.779
			l2.058,2.058c0.139,0.139,0.319,0.208,0.501,0.208S9.151,8.976,9.29,8.837c0.277-0.276,0.277-0.726,0-1.002L7.167,5.712z"/>
	</g>
</g>
</svg>
